<?xml version="1.0" encoding="iso-8859-1"?>
<!-- Generator: Adobe Illustrator 19.0.0, SVG Export Plug-In . SVG Version: 6.00 Build 0)  -->
<svg version="1.1" id="Layer_1" xmlns="http://www.w3.org/2000/svg" xmlns:xlink="http://www.w3.org/1999/xlink" x="0px" y="0px"
	 viewBox="0 0 511.999 511.999" style="enable-background:new 0 0 511.999 511.999;" xml:space="preserve">
<g>
	<g>
		<path d="M490.661,156.721h-34.726v122.911h34.725c9.657,0,17.487-7.829,17.487-17.487v-87.938
			C508.148,164.551,500.318,156.721,490.661,156.721z"/>
	</g>
</g>
<g>
	<g>
		<path d="M141.03,156.721c-75.641,0-137.178,61.538-137.178,137.177v66.438c0,9.657,7.829,17.487,17.487,17.487h87.939
			c9.657,0,17.487-7.829,17.487-17.487v-66.438c0-7.867,6.399-14.266,14.266-14.266h17.715V156.721H141.03z"/>
	</g>
</g>
<g>
	<g>
		<path d="M398.276,76.946c21.214,0,38.473-17.259,38.473-38.473C436.749,17.259,419.49,0,398.277,0c-18.415,0-160.212,0-180.962,0
			c-21.214,0-38.472,17.259-38.472,38.473c0,21.214,17.258,38.473,38.472,38.473h48.913v43.862h-54.425
			c-9.657,0-17.487,7.829-17.487,17.487v161.496c0,9.657,7.829,17.487,17.487,17.487H403.79c9.657,0,17.487-7.829,17.487-17.487
			V138.295c0-9.657-7.829-17.487-17.487-17.487h-54.425V76.946H398.276z"/>
	</g>
</g>
<g>
	<g>
		<path d="M75.829,404.876c-3.278-4.622-8.595-7.37-14.263-7.37s-10.984,2.747-14.263,7.37
			c-9.041,12.747-30.068,44.382-30.068,62.792c0,24.444,19.887,44.331,44.331,44.331s44.331-19.887,44.331-44.331
			C105.896,449.258,84.869,417.622,75.829,404.876z"/>
	</g>
</g>
<g>
</g>
<g>
</g>
<g>
</g>
<g>
</g>
<g>
</g>
<g>
</g>
<g>
</g>
<g>
</g>
<g>
</g>
<g>
</g>
<g>
</g>
<g>
</g>
<g>
</g>
<g>
</g>
<g>
</g>
</svg>
