<svg height="60" viewBox="0 0 60 60" width="60" xmlns="http://www.w3.org/2000/svg"><g id="Page-1" fill="none" fill-rule="evenodd"><g id="075---Toilets-Marker" fill="rgb(0,0,0)" fill-rule="nonzero"><path id="Shape" d="m.45 58.28v.15c.20540964.9342904 1.04365601 1.5923138 2 1.57h55.13c.6516197-.0002772 1.2622506-.3179822 1.6364641-.8514356.3742136-.5334534.4650867-1.2157646.2435359-1.8285644l-3.54-9.93c-.0123446-.0416668-.0291065-.0818952-.05-.12l-5.69-15.94c-.282953-.7958378-1.03536-1.3281257-1.88-1.33h-4c1.776903-4.0511832 2.6961803-8.4262624 2.7-12.85 0-9.38884075-7.6111593-17-17-17s-17 7.61115925-17 17c.0141489 4.4247214.9400759 8.7990458 2.72 12.85h-4c-.8483087-.0023587-1.6058188.5307039-1.89 1.33l-7.31 20.45c-.00394399.0399028-.00394399.0800972 0 .12l-1.98 5.41c-.09530705.2829388-.12605915.583626-.09.88-.00503521.0297887-.00503521.0602113 0 .09zm5.55-10.2 2.28 1-3.14 1.33zm-1.8 4.92 7-3c.3687533-.1570883.6080816-.5191812.6080816-.92s-.2393283-.7629117-.6080816-.92l-4.53-2 .91-2.53 8.74 3.78c.2550505.1113131.5449495.1113131.8 0l8.56-3.7c.87.81 1.64 1.45 2.26 1.94l-2.76 1.19c-.3687533.1570883-.6080816.5191812-.6080816.92s.2393283.7629117.6080816.92l21.5 9.32h-6.76l-19.86-8.58c-.2550505-.1113131-.5449495-.1113131-.8 0l-16.26 7.04zm6.51-18.18 11 4.75c.82 1 1.64 1.88 2.42 2.67l-7.41 3.2-8.5-3.67zm29.14 2.8 9.06-3.91.9 2.53-4 1.71c-.3687533.1570883-.6080816.5191812-.6080816.92s.2393283.7629117.6080816.92l6.19 2.66 1.24 3.45-12.49-5.4c-.2521726-.1084252-.5378274-.1084252-.79 0l-4.08 1.75c1.4330596-1.4493074 2.7598281-2.9999891 3.97-4.64zm11.26 2.26-2.35-1 1.72-.74zm-16.23 18.12h-30.42l15.2-6.57zm16.85 0-23.65-10.21 1.85-.8h.07c.1994427.0004453.3944627-.0587572.56-.17l.39-.28 9.4-4 13.84 6 3.39 9.46zm-3.92-26-5.88 2.54c.51-.84 1-1.69 1.4-2.54zm-31.48-21.07c2.9127586-6.44831223 9.9355629-9.98426905 16.8503563-8.48409412 6.9147935 1.50017493 11.8409234 7.62847112 11.8196437 14.70409412 0 10.85-6.39 21.19-15 27.62-1.2027126-.9088857-2.3513336-1.8872171-3.44-2.93-6.94-6.61-11.56-15.18-11.56-24.69-.0064071-2.1445704.4471212-4.2655824 1.33-6.22zm.33 21.07c.7417574 1.5032639 1.5975952 2.9474901 2.56 4.32l-7.84-3.4.33-.92z"/><path id="Shape" d="m21 25c.3996574.0564764.7940841-.1328484 1-.48l2.14-3.57 2.14 3.57c.1800643.3036995.5069327.4899384.86.49h.17c.4073406-.070586.7292542-.384551.81-.79l2-10c.0714531-.3572656-.0531204-.7255124-.3267949-.9660254s-.6548724-.3167526-1-.2c-.3451277.1167526-.601752.4087598-.6732051.7660254l-1.49 7.47-1.63-2.8c-.1801377-.3035865-.5069924-.489706-.86-.489706s-.6798623.1861195-.86.489706l-1.67 2.78-1.45-7.47c-.0714531-.3572656-.3280774-.6492728-.6732051-.7660254-.3451276-.1167526-.7263255-.040513-1 .2s-.398248.6087598-.3267949.9660254l2 10c.0809272.4184147.4181375.7395673.84.8z"/><path id="Shape" d="m36.18 25c1.7164798.0188789 3.2536312-1.0595415 3.82-2.68.1767311-.5246705-.1053295-1.0932689-.63-1.27s-1.0932689.1053295-1.27.63c-.2785737.985872-1.2570748 1.6018334-2.2664742 1.4267335-1.0093993-.1750999-1.7232733-1.0846365-1.6535258-2.1067335v-4c0-1.1045695.8954305-2 2-2 .5295768.0022328 1.0366497.2144122 1.41.59.2085933.1998525.3663207.4467302.46.72.1004945.3521353.385425.6211779.7427411.7013255.357316.0801476.7298622-.0414201.9711327-.3168959s.3126723-.6607954.1861262-1.0044296c-.1946922-.5733947-.5199035-1.0937329-.95-1.52-1.1449727-1.1381849-2.8619211-1.4764897-4.3530806-.8577242-1.4911594.6187656-2.4641654 2.0732832-2.4669194 3.6877242v4c0 2.209139 1.790861 4 4 4z"/></g></g></svg>